<svg width="32" height="32" viewBox="0 0 32 32" fill="none" xmlns="http://www.w3.org/2000/svg">
<path d="M10.1506 29.1108C10.0908 29.3877 10.12 29.6765 10.2341 29.9358C10.3481 30.1951 10.5412 30.4118 10.7857 30.5549C11.0302 30.6981 11.3136 30.7603 11.5956 30.7328C11.8776 30.7053 12.1436 30.5894 12.3559 30.4017L27.4702 17.0085C27.675 16.828 27.8199 16.5894 27.8858 16.3245C27.9516 16.0596 27.9353 15.7809 27.839 15.5255C27.7427 15.2701 27.5709 15.05 27.3465 14.8946C27.1221 14.7392 26.8557 14.6557 26.5827 14.6553H20.1148C20.0139 14.6573 19.9139 14.6367 19.8221 14.5948C19.7304 14.553 19.6492 14.491 19.5846 14.4135C19.5201 14.336 19.4738 14.245 19.4491 14.1472C19.4245 14.0494 19.4222 13.9473 19.4424 13.8485L21.8494 2.88921C21.9092 2.61228 21.8799 2.32355 21.7659 2.06421C21.6518 1.80488 21.4588 1.58819 21.2143 1.44507C20.9698 1.30195 20.6863 1.23971 20.4044 1.26722C20.1224 1.29474 19.8563 1.41061 19.6441 1.5983L4.52973 14.9915C4.325 15.172 4.18007 15.4106 4.1142 15.6755C4.04833 15.9404 4.06464 16.2191 4.16097 16.4745C4.2573 16.7299 4.42907 16.95 4.65347 17.1054C4.87787 17.2608 5.14426 17.3443 5.41723 17.3447H11.8852C12.3155 17.3447 12.6382 17.7481 12.5576 18.1515L10.1506 29.1108Z" fill="#FF9E00"/>
</svg>