<svg width="100" height="100" viewBox="0 0 100 100" fill="none" xmlns="http://www.w3.org/2000/svg">
<path d="M91.5454 4.38805C92.5459 4.45915 93.4876 4.88855 94.1967 5.59777C94.9059 6.30697 95.3353 7.24872 95.4064 8.24913C95.4775 9.24953 95.1854 10.2422 94.5837 11.0445L11.2499 94.3783C10.8918 94.8556 10.4348 95.2498 9.91084 95.5355C9.3867 95.8213 8.80708 95.9913 8.21162 96.0336C7.6163 96.0759 7.01906 95.9896 6.45991 95.7809C5.90066 95.5721 5.39276 95.2459 4.97065 94.8238C4.54858 94.4018 4.22237 93.8939 4.01362 93.3346C3.80493 92.7755 3.71868 92.1781 3.76093 91.5829C3.80323 90.9876 3.9722 90.4078 4.25776 89.8837C4.54343 89.3597 4.93879 88.9026 5.41621 88.5445L88.7499 5.2108C89.5523 4.60905 90.545 4.31696 91.5454 4.38805Z" fill="#3AA360"/>
<path d="M39.5837 79.1659C40.6884 79.166 41.748 79.6055 42.5292 80.3866C43.3106 81.1679 43.7499 82.2284 43.7499 83.3334C43.7499 84.4382 43.3105 85.4976 42.5292 86.2789C41.7479 87.0602 40.6886 87.4995 39.5837 87.4996H29.8449L38.1787 79.1659H39.5837Z" fill="#3AA360"/>
<path d="M75.8337 62.4996C76.9385 62.4997 77.998 62.9392 78.7792 63.7203C79.5605 64.5015 79.9997 65.5611 79.9999 66.6659C79.9999 67.7709 79.5606 68.8313 78.7792 69.6127C77.998 70.3939 76.9385 70.8332 75.8337 70.8334H46.5112L54.8449 62.4996H75.8337Z" fill="#3AA360"/>
<path d="M11.5258 70.7162C10.7854 70.538 10.1005 70.16 9.55317 69.6127C8.77202 68.8313 8.33369 67.7708 8.33369 66.6659C8.33389 65.5613 8.77216 64.5015 9.55317 63.7203C10.3345 62.939 11.3949 62.4996 12.4999 62.4996H19.7436L11.5258 70.7162Z" fill="#3AA360"/>
<path d="M28.0773 54.1659H12.4999C11.3949 54.1659 10.3346 53.7278 9.55317 52.9464C8.77189 52.165 8.33369 51.1046 8.33369 49.9996C8.33379 48.8949 8.77219 47.8353 9.55317 47.0541C10.3345 46.2727 11.3949 45.8334 12.4999 45.8334H36.4099L28.0773 54.1659Z" fill="#3AA360"/>
<path d="M84.5837 45.8334C85.6885 45.8335 86.748 46.2729 87.5292 47.0541C88.3105 47.8354 88.7498 48.8948 88.7499 49.9996C88.7499 51.1046 88.3106 52.165 87.5292 52.9464C86.748 53.7275 85.6884 54.1658 84.5837 54.1659H63.1787L71.5112 45.8334H84.5837Z" fill="#3AA360"/>
<path d="M44.7436 37.4996H12.4999C11.3949 37.4996 10.3346 37.0603 9.55317 36.2789C8.77222 35.4976 8.33377 34.438 8.33369 33.3334C8.33376 32.2285 8.77191 31.1679 9.55317 30.3866C10.3345 29.6053 11.3949 29.1659 12.4999 29.1659H53.0773L44.7436 37.4996Z" fill="#3AA360"/>
<path d="M88.7499 29.1659C89.8549 29.1659 90.9153 29.6053 91.6967 30.3866C92.478 31.1679 92.9161 32.2285 92.9162 33.3334C92.9161 34.4381 92.4777 35.4976 91.6967 36.2789C90.9153 37.0603 89.855 37.4996 88.7499 37.4996H79.8449L88.1787 29.1659H88.7499Z" fill="#3AA360"/>
<path d="M61.4099 20.8334H12.4999C11.3949 20.8333 10.3346 20.394 9.55317 19.6127C8.77202 18.8313 8.33369 17.7708 8.33369 16.6659C8.33389 15.5613 8.77216 14.5015 9.55317 13.7203C10.3345 12.939 11.3949 12.4996 12.4999 12.4996H69.7436L61.4099 20.8334Z" fill="#3AA360"/>
</svg>
