<svg width="81" height="80" viewBox="0 0 81 80" fill="none" xmlns="http://www.w3.org/2000/svg">
<path d="M10.4998 10C9.61578 10 8.76794 10.3512 8.14281 10.9763C7.51769 11.6014 7.1665 12.4493 7.1665 13.3333C7.1665 14.2174 7.51769 15.0652 8.14281 15.6904C8.76794 16.3155 9.61578 16.6667 10.4998 16.6667H70.4998C71.3839 16.6667 72.2317 16.3155 72.8569 15.6904C73.482 15.0652 73.8332 14.2174 73.8332 13.3333C73.8332 12.4493 73.482 11.6014 72.8569 10.9763C72.2317 10.3512 71.3839 10 70.4998 10H10.4998ZM63.8332 46.6667C64.7172 46.6667 65.5651 47.0179 66.1902 47.643C66.8153 48.2681 67.1665 49.1159 67.1665 50V60H77.1665C78.0506 60 78.8984 60.3512 79.5235 60.9763C80.1487 61.6014 80.4998 62.4493 80.4998 63.3333C80.4998 64.2174 80.1487 65.0652 79.5235 65.6904C78.8984 66.3155 78.0506 66.6667 77.1665 66.6667H67.1665V76.6667C67.1665 77.5507 66.8153 78.3986 66.1902 79.0237C65.5651 79.6488 64.7172 80 63.8332 80C62.9491 80 62.1013 79.6488 61.4761 79.0237C60.851 78.3986 60.4998 77.5507 60.4998 76.6667V66.6667H50.4998C49.6158 66.6667 48.7679 66.3155 48.1428 65.6904C47.5177 65.0652 47.1665 64.2174 47.1665 63.3333C47.1665 62.4493 47.5177 61.6014 48.1428 60.9763C48.7679 60.3512 49.6158 60 50.4998 60H60.4998V50C60.4998 49.1159 60.851 48.2681 61.4761 47.643C62.1013 47.0179 62.9491 46.6667 63.8332 46.6667ZM7.1665 26.6667C7.1665 25.7826 7.51769 24.9348 8.14281 24.3096C8.76794 23.6845 9.61578 23.3333 10.4998 23.3333H70.4998C71.3839 23.3333 72.2317 23.6845 72.8569 24.3096C73.482 24.9348 73.8332 25.7826 73.8332 26.6667C73.8332 27.5507 73.482 28.3986 72.8569 29.0237C72.2317 29.6488 71.3839 30 70.4998 30H10.4998C9.61578 30 8.76794 29.6488 8.14281 29.0237C7.51769 28.3986 7.1665 27.5507 7.1665 26.6667ZM10.4998 36.6667C9.61578 36.6667 8.76794 37.0179 8.14281 37.643C7.51769 38.2681 7.1665 39.1159 7.1665 40C7.1665 40.8841 7.51769 41.7319 8.14281 42.357C8.76794 42.9821 9.61578 43.3333 10.4998 43.3333H47.1665C48.0506 43.3333 48.8984 42.9821 49.5235 42.357C50.1486 41.7319 50.4998 40.8841 50.4998 40C50.4998 39.1159 50.1486 38.2681 49.5235 37.643C48.8984 37.0179 48.0506 36.6667 47.1665 36.6667H10.4998ZM7.1665 53.3333C7.1665 52.4493 7.51769 51.6014 8.14281 50.9763C8.76794 50.3512 9.61578 50 10.4998 50H37.1665C38.0506 50 38.8984 50.3512 39.5235 50.9763C40.1486 51.6014 40.4998 52.4493 40.4998 53.3333C40.4998 54.2174 40.1486 55.0652 39.5235 55.6904C38.8984 56.3155 38.0506 56.6667 37.1665 56.6667H10.4998C9.61578 56.6667 8.76794 56.3155 8.14281 55.6904C7.51769 55.0652 7.1665 54.2174 7.1665 53.3333ZM10.4998 63.3333C9.61578 63.3333 8.76794 63.6845 8.14281 64.3096C7.51769 64.9348 7.1665 65.7826 7.1665 66.6667C7.1665 67.5507 7.51769 68.3986 8.14281 69.0237C8.76794 69.6488 9.61578 70 10.4998 70H37.1665C38.0506 70 38.8984 69.6488 39.5235 69.0237C40.1486 68.3986 40.4998 67.5507 40.4998 66.6667C40.4998 65.7826 40.1486 64.9348 39.5235 64.3096C38.8984 63.6845 38.0506 63.3333 37.1665 63.3333H10.4998Z" fill="#ABABAB"/>
</svg>
