<svg width="100" height="100" viewBox="0 0 32 32" fill="none" xmlns="http://www.w3.org/2000/svg">
<path fill-rule="evenodd" clip-rule="evenodd" d="M28.3448 3.53412C27.7202 2.97867 26.8731 2.66663 25.9898 2.66663H6.00688C5.12358 2.66663 4.27646 2.97867 3.65187 3.53412C3.02728 4.08956 2.67639 4.84291 2.67639 5.62843V26.3611C2.67639 27.1466 3.02728 27.8999 3.65187 28.4554C4.27646 29.0108 5.12358 29.3229 6.00688 29.3229H22.4575L21.4554 23.045C21.3905 22.6596 21.3996 22.226 21.5416 21.7968C21.6882 21.3539 21.9741 20.931 22.4137 20.6345C22.8532 20.338 23.3525 20.2314 23.818 20.2614C24.2692 20.2905 24.6745 20.4445 25.0075 20.649L29.3203 23.2475V5.62843C29.3203 4.84291 28.9694 4.08956 28.3448 3.53412ZM9.92744 23H18.4989V21.3529H9.92744V13.1176H8.49886V21.3529C8.49886 22.2605 9.13958 23 9.92744 23ZM12.7847 9H22.0704C22.8583 9 23.499 9.73788 23.499 10.6471V18.0588C23.499 18.9664 22.8583 19.7059 22.0704 19.7059H12.7847C11.9968 19.7059 11.3561 18.9664 11.3561 18.0588V10.6471C11.3561 9.73788 11.9968 9 12.7847 9Z" fill="#ABABAB"/>
<path d="M29.3203 25.1353L24.1658 22.0297C24.0177 21.9378 23.8622 21.8846 23.7139 21.875C23.5841 21.8667 23.4636 21.892 23.3608 21.9488C23.3461 21.9569 23.3318 21.9657 23.3179 21.9751" fill="#ABABAB"/>
<path d="M29.3203 25.1353L30.1405 25.6295C30.8985 26.0887 31.1896 27.2073 30.6425 27.5763L25.7674 30.8647C25.2203 31.2337 24.2887 30.5471 24.1504 29.6699L23.0509 22.7818C23.0212 22.61 23.0301 22.4459 23.0768 22.3048C23.0768 22.3048 23.0767 22.3048 23.0768 22.3048C23.1176 22.1814 23.1863 22.079 23.2774 22.005" fill="#ABABAB"/>
</svg>
