<svg width="100" height="100" viewBox="0 0 29 29" fill="none" xmlns="http://www.w3.org/2000/svg">
<path fill-rule="evenodd" clip-rule="evenodd" d="M23.9898 0.666626C24.8731 0.666626 25.7202 0.978672 26.3448 1.53412C26.9694 2.08956 27.3203 2.84291 27.3203 3.62843V21.2475L23.0075 18.649C22.6745 18.4445 22.2692 18.2905 21.818 18.2614C21.3525 18.2314 20.8532 18.338 20.4137 18.6345C19.9741 18.931 19.6882 19.3539 19.5416 19.7968C19.3996 20.226 19.3905 20.6596 19.4554 21.045L20.4575 27.3229H4.00688C3.12358 27.3229 2.27646 27.0108 1.65187 26.4554C1.02728 25.8999 0.676392 25.1466 0.676392 24.3611V3.62843C0.676392 2.84291 1.02728 2.08956 1.65187 1.53412C2.27646 0.978672 3.12358 0.666626 4.00688 0.666626H23.9898ZM17.407 16.3272L17.4078 16.328C17.6118 16.5307 17.8876 16.6445 18.1752 16.6445C18.4628 16.6445 18.7388 16.5306 18.9427 16.3279L21.1816 14.0979L21.1848 14.0945C22.1823 13.054 22.7326 11.6642 22.7177 10.2229C22.7029 8.78162 22.1242 7.40343 21.1056 6.38361C20.087 5.3638 18.7095 4.78347 17.2682 4.76696C15.8269 4.75045 14.4365 5.29904 13.3948 6.29526L11.1472 8.54278L11.1422 8.54864C10.9639 8.75687 10.8707 9.02471 10.8813 9.29865C10.8919 9.57258 11.0054 9.83244 11.1993 10.0263C11.3931 10.2201 11.653 10.3337 11.9269 10.3443C12.2009 10.3549 12.4687 10.2617 12.6769 10.0834L12.6827 10.0785L14.9244 7.8456C15.5571 7.2587 16.3926 6.93977 17.2556 6.9559C18.1196 6.97206 18.9437 7.32289 19.5542 7.93452C20.1648 8.54616 20.5142 9.37085 20.5288 10.2349C20.5434 11.0979 20.223 11.9329 19.6349 12.5645L17.407 14.7924C17.2043 14.9964 17.0905 15.2723 17.0905 15.5598C17.0905 15.8474 17.2043 16.1232 17.407 16.3272ZM14.724 17.4665L12.4943 19.7052C11.8685 20.3309 11.0196 20.6825 10.1347 20.6825C9.24968 20.6825 8.40092 20.331 7.77512 19.7052C7.14932 19.0794 6.79775 18.2306 6.79775 17.3456C6.79775 16.4606 7.14932 15.6118 7.77512 14.986L10.0144 12.7556C10.2172 12.5516 10.331 12.2758 10.331 11.9882C10.331 11.7007 10.2172 11.4249 10.0146 11.221C9.91342 11.119 9.79303 11.038 9.66039 10.9828C9.52776 10.9275 9.38549 10.8991 9.2418 10.8991C9.09811 10.8991 8.95585 10.9275 8.82321 10.9828C8.69072 11.038 8.57012 11.1192 8.469 11.221L6.23944 13.4503L6.23393 13.4563C5.26926 14.5029 4.74673 15.8819 4.77568 17.3049C4.80463 18.7279 5.38281 20.0846 6.38924 21.0911C7.39567 22.0975 8.75235 22.6757 10.1754 22.7046C11.5984 22.7336 12.9775 22.2111 14.0241 21.2465L16.2687 19.0107C16.4735 18.8059 16.5886 18.5281 16.5886 18.2385C16.5886 17.9489 16.4735 17.6711 16.2687 17.4663C16.0639 17.2615 15.7862 17.1464 15.4965 17.1464C15.2069 17.1464 14.9288 17.2617 14.724 17.4665ZM16.513 13.0045L12.9587 16.5588C12.8666 16.6782 12.7505 16.7773 12.618 16.8495C12.4811 16.9242 12.3297 16.9685 12.1742 16.9796C12.0186 16.9906 11.8625 16.9681 11.7164 16.9136C11.5703 16.8591 11.4376 16.7738 11.3273 16.6635C11.2171 16.5532 11.1318 16.4206 11.0773 16.2745C11.0227 16.1284 11.0002 15.9722 11.0113 15.8167C11.0223 15.6611 11.0667 15.5098 11.1413 15.3729C11.2136 15.2403 11.3126 15.1243 11.432 15.0321L14.9864 11.4778L14.9977 11.4693C15.2073 11.3121 15.4666 11.2358 15.728 11.2543C15.9893 11.2729 16.2352 11.3851 16.4205 11.5704C16.6057 11.7557 16.718 12.0015 16.7365 12.2629C16.7551 12.5242 16.6788 12.7835 16.5216 12.9931L16.513 13.0045Z" fill="#ABABAB"/>
<path d="M22.1504 27.6699C22.2887 28.5471 23.2203 29.2337 23.7674 28.8647L28.6425 25.5763C29.1896 25.2073 28.8985 24.0887 28.1405 23.6295L22.1658 20.0298C22.0177 19.9379 21.8622 19.8846 21.7139 19.8751C21.5656 19.8655 21.4293 19.8999 21.3179 19.9751C21.2064 20.0503 21.1234 20.1637 21.0768 20.3048C21.0301 20.4459 21.0212 20.61 21.0509 20.7818L22.1504 27.6699Z" fill="#ABABAB"/>
</svg>
