<svg width="100" height="100" viewBox="0 0 80 80" fill="none" xmlns="http://www.w3.org/2000/svg">
<path fill-rule="evenodd" clip-rule="evenodd" d="M52.9521 21.6121C55.0762 19.4108 55.4624 16.0508 55.4624 12.9611C55.4624 10.6696 56.1419 8.42954 57.415 6.5242C58.6881 4.6189 60.4976 3.13387 62.6147 2.25695C64.7317 1.38002 67.0614 1.15058 69.3089 1.59763C71.5563 2.04468 73.6209 3.14816 75.2412 4.7685C76.8615 6.38887 77.965 8.45329 78.4121 10.7008C78.8591 12.9483 78.6297 15.2779 77.7527 17.395C76.8758 19.512 75.3908 21.3216 73.4854 22.5946C71.5801 23.8677 69.34 24.5473 67.0485 24.5473C63.959 24.5473 60.599 24.8948 58.3976 27.0576C57.3245 28.1422 56.7226 29.6063 56.7226 31.1321C56.7226 32.6578 57.3245 34.1219 58.3976 35.2065L62.7231 39.5321C64.8928 41.7045 66.1114 44.6492 66.1114 47.7195C66.1114 50.7899 64.8928 53.7347 62.7231 55.9071L43.4128 75.2174C42.3364 76.2975 41.0574 77.1545 39.649 77.7394C38.2407 78.3241 36.7308 78.6251 35.206 78.6251C33.681 78.6251 32.1712 78.3241 30.7628 77.7394C29.3545 77.1545 28.0755 76.2975 26.9992 75.2174L4.7537 53.0106C2.584 50.8382 1.3653 47.8933 1.3653 44.823C1.3653 41.7527 2.584 38.8079 4.7537 36.6355L20.3564 21.0328L24.1026 17.2867C26.275 15.1169 29.2198 13.8982 32.2901 13.8982C35.3604 13.8982 38.3053 15.1169 40.4777 17.2867L44.8031 21.6121C47.0432 23.8521 50.6735 23.8521 52.9134 21.6121H52.9521ZM20.3178 31.8852L10.2764 42.081C9.91446 42.44 9.62712 42.8671 9.43108 43.3378C9.23504 43.8084 9.13401 44.3132 9.13401 44.823C9.13401 45.3329 9.23504 45.8377 9.43108 46.3083C9.62712 46.779 9.91446 47.206 10.2764 47.5651L18.6571 55.9457L21.8626 52.7016C22.2226 52.3415 22.6502 52.0559 23.1207 51.861C23.5911 51.6661 24.0954 51.5658 24.6046 51.5658C25.1139 51.5658 25.6181 51.6661 26.0886 51.861C26.5591 52.0559 26.9866 52.3415 27.3467 52.7016C27.7067 53.0617 27.9924 53.4892 28.1873 53.9597C28.3822 54.4301 28.4825 54.9345 28.4825 55.4437C28.4825 55.9529 28.3822 56.4572 28.1873 56.9276C27.9924 57.3981 27.7067 57.8257 27.3467 58.1858L24.1026 61.3912L26.3811 63.6698L33.4487 56.5637C34.176 55.8364 35.1623 55.4279 36.1908 55.4279C37.2193 55.4279 38.2056 55.8364 38.9329 56.5637C39.66 57.2909 40.0687 58.2773 40.0687 59.3057C40.0687 60.3342 39.66 61.3205 38.9329 62.0478L31.8266 69.1153L32.4832 69.7719C32.8423 70.1339 33.2693 70.4212 33.74 70.6172C34.2106 70.8133 34.7154 70.9143 35.2253 70.9143C35.7351 70.9143 36.2399 70.8133 36.7105 70.6172C37.1812 70.4212 37.6082 70.1339 37.9673 69.7719L48.1245 59.6533L20.3178 31.8852Z" fill="#DA373C"/>
</svg>
