<svg width="100" height="100" viewBox="0 0 80 80" fill="none" xmlns="http://www.w3.org/2000/svg">
<path fill-rule="evenodd" clip-rule="evenodd" d="M51.1667 24.1333C53 22.2333 53.3333 19.3333 53.3333 16.6666C53.3333 14.6888 53.9198 12.7554 55.0186 11.1109C56.1174 9.46644 57.6792 8.18471 59.5065 7.42784C61.3337 6.67096 63.3444 6.47293 65.2842 6.85878C67.224 7.24463 69.0059 8.19704 70.4044 9.59556C71.8029 10.9941 72.7553 12.7759 73.1412 14.7157C73.527 16.6555 73.329 18.6662 72.5721 20.4935C71.8152 22.3207 70.5335 23.8825 68.889 24.9813C67.2445 26.0801 65.3111 26.6666 63.3333 26.6666C60.6667 26.6666 57.7667 26.9666 55.8667 28.8333C54.9405 29.7694 54.421 31.0331 54.421 32.35C54.421 33.6668 54.9405 34.9305 55.8667 35.8666L59.6 39.6C61.4727 41.475 62.5245 44.0166 62.5245 46.6666C62.5245 49.3166 61.4727 51.8583 59.6 53.7333L42.9333 70.4C42.0043 71.3322 40.9004 72.0719 39.6848 72.5767C38.4693 73.0814 37.1661 73.3412 35.85 73.3412C34.5338 73.3412 33.2307 73.0814 32.0151 72.5767C30.7996 72.0719 29.6957 71.3322 28.7667 70.4L9.56665 51.2333C7.69398 49.3583 6.64212 46.8166 6.64212 44.1666C6.64212 41.5166 7.69398 38.975 9.56665 37.1L23.0333 23.6333L26.2667 20.4C28.1417 18.5273 30.6833 17.4754 33.3333 17.4754C35.9833 17.4754 38.525 18.5273 40.4 20.4L44.1333 24.1333C46.0667 26.0666 49.2 26.0666 51.1333 24.1333H51.1667ZM23 33L14.3333 41.8C14.0209 42.1098 13.7729 42.4785 13.6037 42.8847C13.4345 43.2909 13.3473 43.7266 13.3473 44.1666C13.3473 44.6067 13.4345 45.0424 13.6037 45.4486C13.7729 45.8548 14.0209 46.2234 14.3333 46.5333L21.5667 53.7666L24.3333 50.9666C24.6441 50.6558 25.0131 50.4093 25.4192 50.2411C25.8252 50.0729 26.2605 49.9863 26.7 49.9863C27.1395 49.9863 27.5747 50.0729 27.9808 50.2411C28.3869 50.4093 28.7559 50.6558 29.0667 50.9666C29.3774 51.2774 29.624 51.6464 29.7922 52.0525C29.9604 52.4585 30.047 52.8938 30.047 53.3333C30.047 53.7728 29.9604 54.2081 29.7922 54.6141C29.624 55.0202 29.3774 55.3892 29.0667 55.7L26.2667 58.4666L28.2333 60.4333L34.3333 54.3C34.961 53.6723 35.8123 53.3197 36.7 53.3197C37.5877 53.3197 38.439 53.6723 39.0667 54.3C39.6943 54.9276 40.047 55.779 40.047 56.6666C40.047 57.5543 39.6943 58.4056 39.0667 59.0333L32.9333 65.1333L33.5 65.7C33.8099 66.0124 34.1785 66.2604 34.5847 66.4296C34.9909 66.5988 35.4266 66.686 35.8667 66.686C36.3067 66.686 36.7424 66.5988 37.1486 66.4296C37.5548 66.2604 37.9234 66.0124 38.2333 65.7L47 56.9666L23 33Z" fill="#3AA360"/>
</svg>
