<svg width="100" height="100" viewBox="0 0 32 32" fill="none" xmlns="http://www.w3.org/2000/svg">
<path d="M22.6667 4.67327V3.33994C22.6667 2.98632 22.5262 2.64718 22.2762 2.39713C22.0261 2.14708 21.687 2.00661 21.3334 2.00661H20C19.7899 2.00661 19.5929 2.03727 19.4106 2.06564C18.9567 2.13627 18.594 2.19271 18.3467 1.72661C18.1182 1.30327 17.7795 0.949629 17.3663 0.70315C16.9532 0.456672 16.4811 0.326538 16 0.326538C15.519 0.326538 15.0469 0.456672 14.6337 0.70315C14.2206 0.949629 13.8819 1.30327 13.6534 1.72661C13.4061 2.19271 13.0434 2.13627 12.5895 2.06564C12.4072 2.03727 12.2102 2.00661 12 2.00661H10.6667C10.3131 2.00661 9.97395 2.14708 9.7239 2.39713C9.47385 2.64718 9.33337 2.98632 9.33337 3.33994V4.67327C9.33337 5.0269 9.47385 5.36604 9.7239 5.61608C9.97395 5.86613 10.3131 6.00661 10.6667 6.00661H21.3334C21.687 6.00661 22.0261 5.86613 22.2762 5.61608C22.5262 5.36604 22.6667 5.0269 22.6667 4.67327Z" fill="#ABABAB"/>
<path fill-rule="evenodd" clip-rule="evenodd" d="M6.65369 3.28624C6.65369 2.91291 6.34702 2.61957 5.98702 2.67291C5.05452 2.83053 4.20802 3.31346 3.59779 4.03597C2.98756 4.75848 2.65307 5.67384 2.65369 6.61957V22.6196C2.65369 22.7624 2.66133 22.9045 2.67639 23.0453V26.3611C2.67639 27.1466 3.02728 27.8999 3.65187 28.4554C4.27646 29.0108 5.12358 29.3229 6.00688 29.3229H25.9898C26.8731 29.3229 27.7202 29.0108 28.3448 28.4554C28.9694 27.8999 29.3203 27.1466 29.3203 26.3611V22.6375L29.3204 22.6196V6.61957C29.321 5.67384 28.9865 4.75848 28.3762 4.03597C27.766 3.31346 26.9195 2.83053 25.987 2.67291C25.627 2.61957 25.3204 2.91291 25.3204 3.28624V3.95291C25.3204 5.01377 24.8989 6.03119 24.1488 6.78133C23.3986 7.53148 22.3812 7.95291 21.3204 7.95291H10.6537C9.59282 7.95291 8.57541 7.53148 7.82526 6.78133C7.07511 6.03119 6.65369 5.01377 6.65369 3.95291V3.28624ZM22.6734 12.05C23.3484 12.05 23.9959 12.3182 24.4732 12.7956C24.9506 13.2729 25.2188 13.9204 25.2188 14.5954C25.2188 15.2705 24.9506 15.9179 24.4732 16.3953C23.9959 16.8727 23.3484 17.1408 22.6734 17.1408C21.9983 17.1408 21.3509 16.8727 20.8735 16.3953C20.3961 15.9179 20.128 15.2705 20.128 14.5954C20.128 13.9204 20.3961 13.2729 20.8735 12.7956C21.3509 12.3182 21.9983 12.05 22.6734 12.05ZM16.3099 13.3227C16.6474 13.3227 16.9711 13.4568 17.2098 13.6955C17.4485 13.9342 17.5826 14.2579 17.5826 14.5954C17.5826 14.933 17.4485 15.2567 17.2098 15.4954C16.9711 15.734 16.6474 15.8681 16.3099 15.8681H8.02489C7.68735 15.8681 7.36363 15.734 7.12496 15.4954C6.88628 15.2567 6.7522 14.933 6.7522 14.5954C6.7522 14.2579 6.88628 13.9342 7.12496 13.6955C7.36363 13.4568 7.68735 13.3227 8.02489 13.3227H16.3099ZM25.2188 22.6775C25.2188 22.34 25.0847 22.0163 24.846 21.7776C24.6073 21.5389 24.2836 21.4048 23.9461 21.4048H8.02489C7.68735 21.4048 7.36363 21.5389 7.12496 21.7776C6.88628 22.0163 6.7522 22.34 6.7522 22.6775C6.7522 23.0151 6.88628 23.3388 7.12496 23.5774C7.36363 23.8161 7.68735 23.9502 8.02489 23.9502H23.9461C24.2836 23.9502 24.6073 23.8161 24.846 23.5774C25.0847 23.3388 25.2188 23.0151 25.2188 22.6775Z" fill="#ABABAB"/>
</svg>
