<svg width="100" height="100" viewBox="0 0 80 80" fill="none" xmlns="http://www.w3.org/2000/svg">
<path d="M73.2361 3.51045C74.0365 3.56733 74.7899 3.91086 75.3572 4.47823C75.9246 5.0456 76.2681 5.79896 76.325 6.59932C76.3819 7.39963 76.1482 8.19379 75.6668 8.83565L8.99981 75.5026C8.71331 75.8845 8.34768 76.1999 7.92852 76.4284C7.50938 76.6569 7.04627 76.793 6.57012 76.8269C6.09375 76.8608 5.61521 76.7917 5.16778 76.6247C4.7204 76.4577 4.31404 76.1968 3.97637 75.8591C3.63871 75.5214 3.37774 75.1151 3.21075 74.6677C3.0438 74.2204 2.97481 73.7425 3.0086 73.2663C3.04244 72.79 3.17848 72.3263 3.40703 71.9069C3.63562 71.4876 3.95173 71.1221 4.33379 70.8356L70.9998 4.16866C71.6417 3.68727 72.4359 3.45363 73.2361 3.51045Z" fill="#3AA360"/>
<path d="M70.1717 60.0036C71.9326 60.0931 73.3325 61.5497 73.3328 63.3327C73.3328 65.116 71.9327 66.5724 70.1717 66.6618L69.9998 66.6657H27.2098L33.8758 59.9997H69.9998L70.1717 60.0036Z" fill="#3AA360"/>
<path d="M70.1717 46.6706C71.9326 46.7601 73.3325 48.2167 73.3328 49.9997C73.3327 51.7829 71.9327 53.2394 70.1717 53.3288L69.9998 53.3327H40.5428L47.2098 46.6657H69.9998L70.1717 46.6706Z" fill="#3AA360"/>
<path d="M70.1717 33.3376C71.9324 33.427 73.3323 34.8829 73.3328 36.6657C73.3328 38.449 71.9327 39.9054 70.1717 39.9948L69.9998 39.9997H53.8758L60.5428 33.3327H69.9998L70.1717 33.3376Z" fill="#3AA360"/>
<path d="M16.6668 14.9997C18.5074 14.9999 19.9995 16.4921 19.9998 18.3327C19.9998 20.1736 18.5076 21.6656 16.6668 21.6657C15.7829 21.6658 14.9344 22.0173 14.3094 22.6423C13.6844 23.2673 13.333 24.1159 13.3328 24.9997V26.6657L13.5799 26.6706C14.8118 26.7162 16.0092 27.1032 17.0369 27.7898C18.133 28.5222 18.9874 29.564 19.492 30.7819C19.9964 31.9999 20.129 33.3405 19.8719 34.6335C19.6147 35.9264 18.9797 37.1144 18.0477 38.0466C17.1153 38.9789 15.9268 39.6136 14.6336 39.8708C13.3405 40.128 12.0001 39.9964 10.782 39.4919C9.56408 38.9873 8.52231 38.133 7.78985 37.0368C7.05752 35.9406 6.6668 34.6511 6.6668 33.3327V24.9997C6.66696 22.3478 7.7203 19.8036 9.59551 17.9284C11.4708 16.0532 14.0148 14.9998 16.6668 14.9997Z" fill="#3AA360"/>
<path d="M36.6668 14.9997C38.5074 14.9999 39.9995 16.4921 39.9998 18.3327C39.9998 20.1736 38.5076 21.6656 36.6668 21.6657C35.7829 21.6658 34.9344 22.0173 34.3094 22.6423C33.6844 23.2673 33.333 24.1159 33.3328 24.9997V26.6657L33.5799 26.6706C34.8118 26.7162 36.0092 27.1031 37.0369 27.7898C37.2293 27.9183 37.4137 28.0579 37.5906 28.2048L28.2039 37.5915C28.057 37.4146 27.9184 37.2292 27.7898 37.0368C27.0575 35.9406 26.6668 34.6511 26.6668 33.3327V24.9997C26.667 22.3478 27.7203 19.8036 29.5955 17.9284C31.4708 16.0532 34.0148 14.9998 36.6668 14.9997Z" fill="#3AA360"/>
<path d="M72.6121 21.2634C73.063 21.8318 73.3327 22.5507 73.3328 23.3327C73.3328 25.1737 71.8408 26.6657 69.9998 26.6657H67.2098L72.6121 21.2634Z" fill="#3AA360"/>
</svg>
