<svg height="13" width="8" viewBox="0 0 5 8" xmlns="http://www.w3.org/2000/svg" fill="#686d7c">
    <path d="M1.87122 1.12872C1.87122 1.64545 1.45233 2.06433 0.935608 2.06433C0.418886 2.06433 0 1.64545 0 1.12872C0 0.612001 0.418886 0.193115 0.935608 0.193115C1.45233 0.193115 1.87122 0.612001 1.87122 1.12872Z"/>
    <path d="M4.74243 1.12872C4.74243 1.64545 4.32355 2.06433 3.80682 2.06433C3.2901 2.06433 2.87122 1.64545 2.87122 1.12872C2.87122 0.612001 3.2901 0.193115 3.80682 0.193115C4.32355 0.193115 4.74243 0.612001 4.74243 1.12872Z"/>
    <path d="M1.87122 3.99994C1.87122 4.51666 1.45233 4.93555 0.935608 4.93555C0.418886 4.93555 0 4.51666 0 3.99994C0 3.48322 0.418886 3.06433 0.935608 3.06433C1.45233 3.06433 1.87122 3.48322 1.87122 3.99994Z"/>
    <path d="M4.74243 3.99994C4.74243 4.51666 4.32355 4.93555 3.80682 4.93555C3.2901 4.93555 2.87122 4.51666 2.87122 3.99994C2.87122 3.48322 3.2901 3.06433 3.80682 3.06433C4.32355 3.06433 4.74243 3.48322 4.74243 3.99994Z"/>
    <path d="M1.87122 6.87115C1.87122 7.38788 1.45233 7.80676 0.935608 7.80676C0.418886 7.80676 0 7.38788 0 6.87115C0 6.35443 0.418886 5.93555 0.935608 5.93555C1.45233 5.93555 1.87122 6.35443 1.87122 6.87115Z"/>
    <path d="M4.74243 6.87115C4.74243 7.38788 4.32355 7.80676 3.80682 7.80676C3.2901 7.80676 2.87122 7.38788 2.87122 6.87115C2.87122 6.35443 3.2901 5.93555 3.80682 5.93555C4.32355 5.93555 4.74243 6.35443 4.74243 6.87115Z"/>
</svg>