<svg width="100" height="100" viewBox="0 0 81 80" fill="none" xmlns="http://www.w3.org/2000/svg">
<path d="M47.0334 18.2001L62.3 33.4667C62.6099 33.7791 62.9786 34.0271 63.3848 34.1964C63.791 34.3656 64.2267 34.4527 64.6667 34.4527C65.1067 34.4527 65.5424 34.3656 65.9486 34.1964C66.3548 34.0271 66.7235 33.7791 67.0334 33.4667L71.6334 28.8667C72.875 27.6176 73.572 25.928 73.572 24.1667C73.572 22.4055 72.875 20.7158 71.6334 19.4667L61.0334 8.86672C59.7843 7.62505 58.0946 6.9281 56.3334 6.9281C54.5721 6.9281 52.8825 7.62505 51.6334 8.86672L47.0334 13.4667C46.7209 13.7766 46.473 14.1453 46.3037 14.5515C46.1345 14.9577 46.0474 15.3933 46.0474 15.8334C46.0474 16.2734 46.1345 16.7091 46.3037 17.1153C46.473 17.5215 46.7209 17.8902 47.0334 18.2001ZM7.53337 67.2001L9.9667 53.1334C10.3139 51.1022 11.2802 49.2278 12.7334 47.7667L38.9667 21.5334C39.2766 21.221 39.6453 20.973 40.0514 20.8037C40.4576 20.6345 40.8933 20.5474 41.3334 20.5474C41.7734 20.5474 42.2091 20.6345 42.6153 20.8037C43.0215 20.973 43.3902 21.221 43.7 21.5334L58.9667 36.8001C59.2791 37.1099 59.5271 37.4786 59.6963 37.8848C59.8656 38.291 59.9527 38.7267 59.9527 39.1667C59.9527 39.6068 59.8656 40.0424 59.6963 40.4486C59.5271 40.8548 59.2791 41.2235 58.9667 41.5334L32.7334 67.7667C31.2812 69.2138 29.4194 70.1797 27.4 70.5334L13.3 72.9667C12.5128 73.1004 11.705 73.0437 10.9443 72.8012C10.1835 72.5587 9.49185 72.1375 8.92724 71.5729C8.36262 71.0082 7.94144 70.3166 7.69893 69.5558C7.45643 68.7951 7.39966 67.9873 7.53337 67.2001Z" fill="#ABABAB"/>
</svg>
