<svg width="100" height="100" viewBox="0 0 80 80" fill="none" xmlns="http://www.w3.org/2000/svg">
<path d="M73.2362 3.51058C74.0366 3.56746 74.79 3.91098 75.3573 4.47835C75.9246 5.04571 76.2681 5.79911 76.325 6.59944C76.3818 7.39971 76.1482 8.19394 75.6668 8.83577L8.99984 75.5018C8.7133 75.8838 8.34786 76.1999 7.92855 76.4285C7.50942 76.657 7.04629 76.7931 6.57015 76.827C6.09378 76.8609 5.61523 76.7918 5.1678 76.6248C4.72043 76.4578 4.31407 76.1969 3.9764 75.8592C3.63876 75.5216 3.37778 75.1152 3.21077 74.6678C3.04378 74.2204 2.97476 73.7418 3.00862 73.2655C3.04252 72.7893 3.17861 72.3263 3.40706 71.9071C3.63565 71.4878 3.95176 71.1223 4.33382 70.8358L70.9998 4.16878C71.6417 3.68739 72.4359 3.45375 73.2362 3.51058Z" fill="#3AA360"/>
<path d="M69.4617 24.4129C71.957 29.1294 73.2877 34.3823 73.3309 39.7313C73.3777 45.5364 71.9077 51.2529 69.0662 56.3153C66.2247 61.3777 62.1107 65.6109 57.1307 68.5946C52.1508 71.5782 46.4778 73.2095 40.6737 73.327C35.0106 73.4416 29.4146 72.1094 24.4119 69.4627L37.2879 56.5868C38.1803 56.7508 39.088 56.8348 39.9998 56.8348C41.9951 56.8348 43.9708 56.4368 45.8104 55.6639C47.6499 54.891 49.3162 53.7579 50.7127 52.3328C51.3315 51.7016 51.6746 50.8505 51.6659 49.9666C51.657 49.083 51.2977 48.2387 50.6668 47.62C50.0357 47.0014 49.1842 46.6582 48.3006 46.6668C47.7996 46.6718 47.3107 46.7898 46.869 47.0057L69.4617 24.4129Z" fill="#3AA360"/>
<path d="M40.2694 6.6678C45.5354 6.7106 50.7094 8.00161 55.37 10.4237L33.2635 32.5301C33.1106 31.9146 32.7845 31.3502 32.3172 30.909C31.6995 30.3262 30.8823 30.0008 30.033 29.9998L29.6102 30.0233C28.7666 30.1237 27.9924 30.5427 27.4471 31.1942C26.9021 31.8455 26.626 32.6804 26.6756 33.5282C26.7254 34.3762 27.098 35.1735 27.7157 35.7567C28.1415 36.1587 28.6628 36.435 29.2235 36.5701L10.4227 55.3709C8.12818 50.9558 6.84525 46.0735 6.68343 41.0799L6.66683 39.9998L6.68343 38.9198C6.87016 33.1632 8.54549 27.553 11.5457 22.6366C14.546 17.7202 18.7686 13.6646 23.8026 10.866C28.8365 8.06759 34.5101 6.62112 40.2694 6.6678Z" fill="#3AA360"/>
</svg>
