<svg width="100" height="100" viewBox="0 0 81 80" fill="none" xmlns="http://www.w3.org/2000/svg">
<g clip-path="url(#clip0_8_6836)">
<path fill-rule="evenodd" clip-rule="evenodd" d="M70.5 43.3333V63.3333C70.5 67.0152 67.5152 70 63.8333 70H17.1667C13.4848 70 10.5 67.0152 10.5 63.3333V16.6666C10.5 12.9847 13.4848 9.99996 17.1667 9.99996H50.5H37.1667V16.6666H17.1667V63.3333H63.8333V43.3333H70.5ZM47.0333 40.9666L58.8333 56.6666H22.1667L31.3333 44.9L37.8667 52.7666L47.0333 40.9666ZM63.8333 16.6666H73.8333V23.3333H63.8333V33.3333H57.1667V23.3333H47.1667V16.6666H57.1667V6.66663H63.8333V16.6666Z" fill="#ABABAB"/>
</g>
<defs>
<clipPath id="clip0_8_6836">
<rect width="80" height="80" fill="white" transform="translate(0.5)"/>
</clipPath>
</defs>
</svg>
