<svg width="100" height="100" viewBox="0 0 81 80" fill="none" xmlns="http://www.w3.org/2000/svg">
<g clip-path="url(#clip0_19_2187)">
<mask id="mask0_19_2187" style="mask-type:luminance" maskUnits="userSpaceOnUse" x="0" y="0" width="81" height="80">
<path d="M80.5 0H0.5V80H80.5V0Z" fill="white"/>
</mask>
<g mask="url(#mask0_19_2187)">
<mask id="mask1_19_2187" style="mask-type:luminance" maskUnits="userSpaceOnUse" x="-66" y="-68" width="217" height="217">
<path d="M-65.8333 -67.7926H150.167V148.207H-65.8333V-67.7926Z" fill="white"/>
</mask>
<g mask="url(#mask1_19_2187)">
<path d="M7.62247 25.5127C6.77872 28.665 8.64622 31.9027 11.7985 32.7487L26.0635 36.5692C29.2135 37.4152 32.4557 35.5432 33.2995 32.3932L37.12 18.1282C37.9637 14.976 36.094 11.7382 32.944 10.8922L18.679 7.06945C15.529 6.2257 12.2867 8.09545 11.443 11.2477L7.62247 25.5127Z" fill="#ABABAB"/>
<path d="M43.8924 26.3589C41.4759 30.7869 44.6822 36.1869 49.7267 36.1869H67.2114C72.2559 36.1869 75.4599 30.7869 73.0457 26.3589L64.3022 10.3321C61.7844 5.71286 55.1537 5.71286 52.6337 10.3321L43.8924 26.3589Z" fill="#ABABAB"/>
<path d="M20.2539 44.3114C21.4239 43.1211 23.3162 43.1211 24.4884 44.3114L26.9994 46.8651C27.4787 47.3511 28.1042 47.6594 28.7747 47.7381L32.2982 48.1499C33.9384 48.3411 35.1197 49.8509 34.9374 51.5271L34.5459 55.1226C34.4717 55.8089 34.6269 56.4996 34.9847 57.0846L36.8657 60.1514C37.7432 61.5801 37.3224 63.4634 35.9229 64.3634L32.9259 66.2939C32.3544 66.6606 31.9202 67.2164 31.6952 67.8666L30.5184 71.2799C29.9717 72.8684 28.2662 73.7076 26.7047 73.1541L23.3567 71.9639C22.7177 71.7389 22.0224 71.7389 21.3857 71.9639L18.0354 73.1541C16.4762 73.7076 14.7707 72.8684 14.2217 71.2799L13.0449 67.8666C12.8222 67.2164 12.3879 66.6606 11.8164 66.2939L8.81718 64.3634C7.41993 63.4634 6.99918 61.5801 7.87443 60.1514L9.75768 57.0846C10.1154 56.4996 10.2707 55.8089 10.1942 55.1226L9.80493 51.5271C9.62268 49.8509 10.8017 48.3411 12.4442 48.1499L15.9654 47.7381C16.6382 47.6594 17.2637 47.3511 17.7429 46.8651L20.2539 44.3114Z" fill="#ABABAB"/>
<path d="M55.5182 70.9538C56.6882 74.115 61.1589 74.115 62.3289 70.9538L63.8522 66.834C64.4574 65.1983 65.7489 63.9068 67.3869 63.3015L71.5044 61.776C74.6657 60.6083 74.6657 56.1375 71.5044 54.9675L67.3869 53.442C65.7489 52.8368 64.4574 51.5453 63.8522 49.9095L62.3289 45.7898C61.1589 42.6285 56.6882 42.6285 55.5182 45.7898L53.9949 49.9095C53.3874 51.5453 52.0982 52.8368 50.4602 53.442L46.3404 54.9675C43.1792 56.1375 43.1792 60.6083 46.3404 61.776L50.4602 63.3015C52.0982 63.9068 53.3874 65.1983 53.9949 66.834L55.5182 70.9538Z" fill="#ABABAB"/>
</g>
</g>
</g>
<defs>
<clipPath id="clip0_19_2187">
<rect width="80" height="80" fill="white" transform="translate(0.5)"/>
</clipPath>
</defs>
</svg>
