<svg width="100" height="100" viewBox="0 0 32 32" fill="none" xmlns="http://www.w3.org/2000/svg">
<path fill-rule="evenodd" clip-rule="evenodd" d="M2.66663 6.66663C2.66663 5.60576 3.08805 4.58834 3.8382 3.8382C4.58834 3.08805 5.60576 2.66663 6.66663 2.66663H25.3333C26.3942 2.66663 27.4116 3.08805 28.1617 3.8382C28.9119 4.58834 29.3333 5.60576 29.3333 6.66663V25.3333C29.3333 26.3942 28.9119 27.4116 28.1617 28.1617C27.4116 28.9119 26.3942 29.3333 25.3333 29.3333H6.66663C5.60576 29.3333 4.58834 28.9119 3.8382 28.1617C3.08805 27.4116 2.66663 26.3942 2.66663 25.3333V6.66663ZM20.4666 17.5066L25.1333 23.7333C25.6266 24.4 25.16 25.3333 24.3333 25.3333H7.74663C7.55742 25.3347 7.37169 25.2824 7.21103 25.1824C7.05036 25.0825 6.92135 24.939 6.83897 24.7687C6.75659 24.5983 6.72423 24.4081 6.74565 24.2201C6.76707 24.0321 6.84138 23.8541 6.95996 23.7066L9.43996 20.6133C9.62736 20.3797 9.86483 20.1912 10.1348 20.0616C10.4048 19.9321 10.7005 19.8649 11 19.8649C11.2994 19.8649 11.5951 19.9321 11.8651 20.0616C12.1351 20.1912 12.3726 20.3797 12.56 20.6133L13.2266 21.4666L16.2 17.5066C16.4483 17.1754 16.7704 16.9066 17.1407 16.7215C17.511 16.5363 17.9193 16.44 18.3333 16.44C18.7473 16.44 19.1556 16.5363 19.5259 16.7215C19.8961 16.9066 20.2182 17.1754 20.4666 17.5066ZM13.6 7.97329C13.9066 6.75996 12.4266 5.90663 11.5333 6.77329C11.3016 6.99969 10.9906 7.12645 10.6666 7.12645C10.3427 7.12645 10.0316 6.99969 9.79996 6.77329C8.90663 5.90663 7.42663 6.75996 7.73329 7.97329C7.81124 8.28603 7.76435 8.61682 7.60257 8.89558C7.44079 9.17434 7.17683 9.37915 6.86663 9.46663C5.66663 9.81329 5.66663 11.52 6.86663 11.8666C7.50663 12.0533 7.89329 12.7066 7.73329 13.36C7.42663 14.5733 8.90663 15.4266 9.79996 14.56C10.0316 14.3336 10.3427 14.2068 10.6666 14.2068C10.9906 14.2068 11.3016 14.3336 11.5333 14.56C12.4266 15.4266 13.9066 14.5733 13.6 13.36C13.522 13.0472 13.5689 12.7164 13.7307 12.4377C13.8925 12.1589 14.1564 11.9541 14.4666 11.8666C15.6666 11.52 15.6666 9.81329 14.4666 9.46663C14.1564 9.37915 13.8925 9.17434 13.7307 8.89558C13.5689 8.61682 13.522 8.28603 13.6 7.97329Z" fill="#ABABAB"/>
</svg>
