<svg width="100" height="100" viewBox="0 0 32 32" fill="none" xmlns="http://www.w3.org/2000/svg">
<path fill-rule="evenodd" clip-rule="evenodd" d="M25.9898 2.66663C26.8731 2.66663 27.7202 2.97867 28.3448 3.53412C28.9694 4.08956 29.3203 4.84291 29.3203 5.62843V23.2475L25.0075 20.649C24.6745 20.4445 24.2692 20.2905 23.818 20.2614C23.3525 20.2314 22.8532 20.338 22.4137 20.6345C21.9741 20.931 21.6882 21.3539 21.5416 21.7968C21.3996 22.226 21.3905 22.6596 21.4554 23.045L22.4575 29.3229H6.00688C5.12358 29.3229 4.27646 29.0108 3.65187 28.4554C3.02728 27.8999 2.67639 27.1466 2.67639 26.3611V5.62843C2.67639 4.84291 3.02728 4.08956 3.65187 3.53412C4.27646 2.97867 5.12358 2.66663 6.00688 2.66663H25.9898ZM6.77494 8.88615C6.77494 9.73802 7.47192 10.435 8.32379 10.435H20.7146C21.1254 10.435 21.5193 10.2718 21.8098 9.98135C22.1002 9.69089 22.2634 9.29693 22.2634 8.88615L22.2634 8.31545C22.2634 7.90467 22.1002 7.51071 21.8097 7.22025C21.5193 6.92978 21.1253 6.7666 20.7145 6.7666H8.32375C7.91297 6.7666 7.51901 6.92978 7.22855 7.22025C6.93808 7.51071 6.7749 7.90467 6.7749 8.31545L6.77494 8.88615ZM8.32379 16.1652C7.47192 16.1652 6.77494 15.4682 6.77494 14.6163L6.7749 14.0456C6.7749 13.6348 6.93808 13.2409 7.22855 12.9504C7.51902 12.6599 7.91297 12.4968 8.32375 12.4968H20.7145C21.1253 12.4968 21.5193 12.6599 21.8097 12.9504C22.1002 13.2409 22.2634 13.6348 22.2634 14.0456L22.2634 14.6163C22.2634 15.0271 22.1002 15.421 21.8098 15.7115C21.5193 16.002 21.1254 16.1652 20.7146 16.1652H8.32379ZM6.77494 20.3466C6.77494 21.1985 7.47192 21.8955 8.32379 21.8955H15.8594C16.2702 21.8955 16.6642 21.7323 16.9546 21.4418C17.2451 21.1513 17.4083 20.7574 17.4083 20.3466L17.4083 19.7759C17.4083 19.3651 17.2451 18.9712 16.9546 18.6807C16.6641 18.3902 16.2702 18.2271 15.8594 18.2271H8.32375C7.91297 18.2271 7.51902 18.3902 7.22855 18.6807C6.93808 18.9712 6.7749 19.3651 6.7749 19.7759L6.77494 20.3466Z" fill="#ABABAB"/>
<path d="M23.0509 22.7818C23.0212 22.61 23.0301 22.4459 23.0768 22.3048C23.0768 22.3048 23.0767 22.3048 23.0768 22.3048C23.1234 22.1637 23.2064 22.0503 23.3178 21.9751C23.3179 21.9751 23.3178 21.9751 23.3178 21.9751C23.3438 21.9576 23.3712 21.9422 23.3998 21.9291C23.4936 21.8862 23.6002 21.8677 23.7139 21.875C23.8622 21.8846 24.0177 21.9378 24.1658 22.0297L30.1405 25.6295C30.8985 26.0887 31.1896 27.2073 30.6425 27.5763L25.7674 30.8647C25.2203 31.2337 24.2887 30.5471 24.1504 29.6699L23.0509 22.7818Z" fill="#ABABAB"/>
</svg>
