<svg width="100" height="100" viewBox="0 0 32 32" fill="none" xmlns="http://www.w3.org/2000/svg">
<path fill-rule="evenodd" clip-rule="evenodd" d="M25.9898 2.66663C26.8731 2.66663 27.7202 2.97867 28.3448 3.53412C28.9694 4.08956 29.3203 4.84291 29.3203 5.62843V26.3611C29.3203 27.1466 28.9694 27.8999 28.3448 28.4554C27.7202 29.0108 26.8731 29.3229 25.9898 29.3229H6.00688C5.12358 29.3229 4.27646 29.0108 3.65187 28.4554C3.02728 27.8999 2.67639 27.1466 2.67639 26.3611V5.62843C2.67639 4.84291 3.02728 4.08956 3.65187 3.53412C4.27646 2.97867 5.12358 2.66663 6.00688 2.66663H25.9898ZM17.0562 9.02942C16.7785 8.75171 16.4019 8.59583 16.0092 8.59583C15.6166 8.59583 15.2399 8.75171 14.9622 9.02942L12.0004 11.9912C11.7228 12.2689 11.5668 12.6455 11.5668 13.0382C11.5668 13.4309 11.7228 13.8075 12.0004 14.0852L12.1397 14.2081C12.4246 14.4291 12.7803 14.5386 13.1403 14.516C13.5002 14.4933 13.8394 14.3402 14.0944 14.0852L16.0092 12.1719L17.9241 14.0852C18.0261 14.1837 18.1407 14.2662 18.2641 14.3311C18.4786 14.4437 18.7193 14.5031 18.9658 14.5009C19.3541 14.4974 19.7255 14.3417 20.0001 14.0671C20.2746 13.7926 20.4304 13.4211 20.4338 13.0328C20.4371 12.6445 20.2878 12.2705 20.0181 11.9912L17.0562 9.02942ZM14.0944 17.9148C13.9578 17.7733 13.7945 17.6605 13.6137 17.5829C13.433 17.5054 13.2387 17.4645 13.0422 17.4628C12.9706 17.4622 12.8994 17.4667 12.8288 17.4763C12.7054 17.4933 12.5843 17.5256 12.4684 17.573C12.2866 17.6475 12.1212 17.7574 11.9821 17.8965C11.8431 18.0355 11.7331 18.2008 11.6586 18.3828C11.6257 18.4635 11.5999 18.5468 11.5816 18.6316C11.5587 18.7382 11.5474 18.847 11.5484 18.9564C11.5501 19.1531 11.591 19.3474 11.6686 19.5281C11.7 19.6011 11.7371 19.6713 11.7796 19.738C11.8421 19.8364 11.9162 19.9274 12.0004 20.0088L14.9622 22.9706C15.2399 23.2483 15.6166 23.4042 16.0092 23.4042C16.4019 23.4042 16.7785 23.2483 17.0562 22.9706L20.0181 20.0088C20.2957 19.7311 20.4517 19.3545 20.4517 18.9618C20.4517 18.5691 20.2957 18.1925 20.0181 17.9148L19.8788 17.7919C19.5939 17.5709 19.2381 17.4614 18.8782 17.484C18.5184 17.5067 18.1791 17.6598 17.9241 17.9148L16.0077 19.8281L14.0944 17.9148Z" fill="#ABABAB"/>
</svg>
