<svg width="100" height="100" viewBox="0 0 80 80" fill="none" xmlns="http://www.w3.org/2000/svg">
<path fill-rule="evenodd" clip-rule="evenodd" d="M76.325 6.59911C76.3819 7.39948 76.1481 8.1935 75.6667 8.83541L9.00001 75.5022C8.71347 75.8841 8.34817 76.2002 7.92886 76.4288C7.50955 76.6574 7.046 76.7933 6.56963 76.8271C6.09326 76.861 5.61518 76.7921 5.16775 76.6251C4.72033 76.4581 4.31401 76.1969 3.97631 75.8592C3.63862 75.5215 3.37743 75.1152 3.21043 74.6677C3.04344 74.2203 2.97453 73.7422 3.00839 73.2659C3.04224 72.7895 3.17807 72.326 3.40666 71.9066C3.63525 71.4873 3.95128 71.122 4.33334 70.8355L71 4.16874C71.6419 3.68731 72.436 3.45359 73.2363 3.51047C74.0367 3.56735 74.7897 3.91102 75.357 4.47839C75.9244 5.04576 76.2681 5.79875 76.325 6.59911ZM40 10C45.1361 10 49.6538 11.1131 53.601 12.9107L48.4685 18.0432C45.8964 17.1679 43.0808 16.6667 40 16.6667C30.6667 16.6667 23.7667 21.2667 18.7 26.9333C14.4333 31.7667 11.7667 37.0667 10.5 40C12.0526 43.6049 14.0195 47.0119 16.3583 50.1534L11.6012 54.9106C7.10417 49.1022 4.59972 43.3074 3.69999 41C3.45059 40.3567 3.45059 39.6433 3.69999 39C5.76665 33.6667 16.3333 10 40 10ZM32.5924 28.9137C34.7419 27.4775 37.2615 26.6977 39.8442 26.6675L26.6676 39.8441C26.6874 38.1541 27.0284 36.4746 27.6816 34.8975C28.6908 32.4612 30.3998 30.3788 32.5924 28.9137ZM40.0486 53.3332L53.3333 40.0485C53.3237 42.6687 52.5424 45.2284 51.0863 47.4076C49.6212 49.6002 47.5388 51.3092 45.1025 52.3184C43.492 52.9854 41.7748 53.3269 40.0486 53.3332ZM40 63.3333C36.8875 63.3333 34.0456 62.8218 31.4521 61.9297L26.3259 67.0559C30.2904 68.8731 34.8322 70 40 70C63.6667 70 74.2333 46.3333 76.3 41C76.5333 40.3333 76.5333 39.6667 76.3 39C75.3972 36.6847 72.8785 30.8579 68.3523 25.0295L63.5962 29.7856C65.955 32.944 67.9373 36.3718 69.5 40C68.2333 42.9333 65.5667 48.2333 61.3 53.0667C56.2333 58.7333 49.3333 63.3333 40 63.3333Z" fill="#3AA360"/>
</svg>
