<svg width="100" height="100" viewBox="0 0 80 80" fill="none" xmlns="http://www.w3.org/2000/svg">
<path d="M51.8667 39.2333C52.5334 38.9 53.3334 39.3 53.3334 40C53.3334 42.637 52.5514 45.2149 51.0863 47.4076C49.6212 49.6002 47.5388 51.3092 45.1025 52.3184C42.6661 53.3275 39.9852 53.5916 37.3988 53.0771C34.8124 52.5626 32.4366 51.2928 30.5719 49.4281C28.7072 47.5634 27.4374 45.1876 26.9229 42.6012C26.4084 40.0148 26.6725 37.3339 27.6816 34.8975C28.6908 32.4612 30.3998 30.3788 32.5924 28.9137C34.7851 27.4486 37.3629 26.6666 40 26.6666C40.7 26.6666 41.1 27.5 40.7667 28.1333C40.0481 29.6821 39.8225 31.4144 40.1206 33.0956C40.4187 34.7768 41.2261 36.3259 42.4334 37.5332C43.6408 38.7406 45.1898 39.5479 46.8711 39.846C48.5523 40.1441 50.2845 39.9186 51.8334 39.2L51.8667 39.2333Z" fill="#ABABAB"/>
<path fill-rule="evenodd" clip-rule="evenodd" d="M76.3 39C76.5333 39.6667 76.5333 40.3333 76.3 41C74.2333 46.3333 63.6667 70 40 70C16.3 70 5.76665 46.3 3.69999 41C3.45059 40.3567 3.45059 39.6433 3.69999 39C5.76665 33.6667 16.3333 10 40 10C63.7 10 74.2333 33.7 76.3 39ZM61.3 26.9333C64.6881 30.842 67.4538 35.2492 69.5 40C68.2333 42.9333 65.5667 48.2333 61.3 53.0667C56.2333 58.7333 49.3333 63.3333 40 63.3333C30.6667 63.3333 23.7667 58.7333 18.7 53.0667C15.3119 49.158 12.5461 44.7508 10.5 40C11.7667 37.0667 14.4333 31.7667 18.7 26.9333C23.7667 21.2667 30.6667 16.6667 40 16.6667C49.3333 16.6667 56.2333 21.2667 61.3 26.9333Z" fill="#ABABAB"/>
</svg>
