<svg width="100" height="100" viewBox="0 0 32 32" fill="none" xmlns="http://www.w3.org/2000/svg">
<path fill-rule="evenodd" clip-rule="evenodd" d="M6.66663 2.66663C5.60576 2.66663 4.58834 3.08805 3.8382 3.8382C3.08805 4.58834 2.66663 5.60576 2.66663 6.66663V25.3333C2.66663 26.3942 3.08805 27.4116 3.8382 28.1617C4.58834 28.9119 5.60576 29.3333 6.66663 29.3333H25.3333C26.3942 29.3333 27.4116 28.9119 28.1617 28.1617C28.9119 27.4116 29.3333 26.3942 29.3333 25.3333V6.66663C29.3333 5.60576 28.9119 4.58834 28.1617 3.8382C27.4116 3.08805 26.3942 2.66663 25.3333 2.66663H6.66663ZM7.99996 7.99996C7.64634 7.99996 7.3072 8.14044 7.05715 8.39048C6.8071 8.64053 6.66663 8.97967 6.66663 9.33329C6.66663 9.68691 6.8071 10.0261 7.05715 10.2761C7.3072 10.5261 7.64634 10.6666 7.99996 10.6666H14.6666C15.0202 10.6666 15.3594 10.5261 15.6094 10.2761C15.8595 10.0261 16 9.68691 16 9.33329C16 8.97967 15.8595 8.64053 15.6094 8.39048C15.3594 8.14044 15.0202 7.99996 14.6666 7.99996H7.99996ZM6.66663 16C6.66663 15.6463 6.8071 15.3072 7.05715 15.0571C7.3072 14.8071 7.64634 14.6666 7.99996 14.6666H24C24.3536 14.6666 24.6927 14.8071 24.9428 15.0571C25.1928 15.3072 25.3333 15.6463 25.3333 16C25.3333 16.3536 25.1928 16.6927 24.9428 16.9428C24.6927 17.1928 24.3536 17.3333 24 17.3333H7.99996C7.64634 17.3333 7.3072 17.1928 7.05715 16.9428C6.8071 16.6927 6.66663 16.3536 6.66663 16ZM7.99996 21.3333C7.64634 21.3333 7.3072 21.4738 7.05715 21.7238C6.8071 21.9739 6.66663 22.313 6.66663 22.6666C6.66663 23.0202 6.8071 23.3594 7.05715 23.6094C7.3072 23.8595 7.64634 24 7.99996 24H24C24.3536 24 24.6927 23.8595 24.9428 23.6094C25.1928 23.3594 25.3333 23.0202 25.3333 22.6666C25.3333 22.313 25.1928 21.9739 24.9428 21.7238C24.6927 21.4738 24.3536 21.3333 24 21.3333H7.99996Z" fill="#ABABAB"/>
</svg>
