<svg width="90" height="90" viewBox="0 0 90 90" fill="none" xmlns="http://www.w3.org/2000/svg">
<path fill-rule="evenodd" clip-rule="evenodd" d="M32.5 36.25C32.5 35.2554 32.8951 34.3016 33.5984 33.5983C34.3016 32.8951 35.2554 32.5 36.25 32.5H53.75C54.7446 32.5 55.6984 32.8951 56.4017 33.5983C57.1049 34.3016 57.5 35.2554 57.5 36.25V53.75C57.5 54.7446 57.1049 55.6984 56.4017 56.4017C55.6984 57.1049 54.7446 57.5 53.75 57.5H36.25C35.2554 57.5 34.3016 57.1049 33.5984 56.4017C32.8951 55.6984 32.5 54.7446 32.5 53.75V36.25ZM49.1875 46.4125L53.5625 52.25C54.025 52.875 53.5875 53.75 52.8125 53.75H37.2625C37.0851 53.7513 36.911 53.7023 36.7604 53.6086C36.6098 53.5149 36.4888 53.3804 36.4116 53.2207C36.3344 53.061 36.304 52.8827 36.3241 52.7064C36.3441 52.5302 36.4138 52.3632 36.525 52.225L38.85 49.325C39.0257 49.106 39.2483 48.9293 39.5015 48.8078C39.7546 48.6864 40.0317 48.6233 40.3125 48.6233C40.5933 48.6233 40.8704 48.6864 41.1236 48.8078C41.3767 48.9293 41.5993 49.106 41.775 49.325L42.4 50.125L45.1875 46.4125C45.4204 46.102 45.7223 45.85 46.0695 45.6764C46.4166 45.5029 46.7994 45.4125 47.1875 45.4125C47.5756 45.4125 47.9584 45.5029 48.3055 45.6764C48.6527 45.85 48.9546 46.102 49.1875 46.4125ZM42.75 37.475C43.0375 36.3375 41.65 35.5375 40.8125 36.35C40.5953 36.5622 40.3037 36.6811 40 36.6811C39.6963 36.6811 39.4047 36.5622 39.1875 36.35C38.35 35.5375 36.9625 36.3375 37.25 37.475C37.3231 37.7682 37.2791 38.0783 37.1274 38.3396C36.9758 38.601 36.7283 38.793 36.4375 38.875C35.3125 39.2 35.3125 40.8 36.4375 41.125C37.0375 41.3 37.4 41.9125 37.25 42.525C36.9625 43.6625 38.35 44.4625 39.1875 43.65C39.4047 43.4378 39.6963 43.3189 40 43.3189C40.3037 43.3189 40.5953 43.4378 40.8125 43.65C41.65 44.4625 43.0375 43.6625 42.75 42.525C42.6769 42.2318 42.7209 41.9217 42.8726 41.6604C43.0242 41.399 43.2717 41.207 43.5625 41.125C44.6875 40.8 44.6875 39.2 43.5625 38.875C43.2717 38.793 43.0242 38.601 42.8726 38.3396C42.7209 38.0783 42.6769 37.7682 42.75 37.475Z" fill="#ABABAB"/>
</svg>
