<svg width="100" height="100" viewBox="0 0 80 80" fill="none" xmlns="http://www.w3.org/2000/svg">
<path d="M47.5 3.33331C48.8667 3.33331 50 4.46665 50 5.83331V9.99998H67.5C68.8667 9.99998 70 11.1333 70 12.5V14.1666C70 15.5333 68.8667 16.6666 67.5 16.6666H12.5C11.837 16.6666 11.2011 16.4033 10.7322 15.9344C10.2634 15.4656 10 14.8297 10 14.1666V12.5C10 11.1333 11.1333 9.99998 12.5 9.99998H30V5.83331C30 4.46665 31.1333 3.33331 32.5 3.33331H47.5Z" fill="white"/>
<path fill-rule="evenodd" clip-rule="evenodd" d="M16.8667 23.3333C16.4116 23.3325 15.9612 23.4249 15.5431 23.6048C15.1251 23.7846 14.7483 24.0482 14.436 24.3792C14.1237 24.7103 13.8825 25.1017 13.7273 25.5295C13.572 25.9573 13.506 26.4124 13.5333 26.8667L16.0667 67.3C16.2279 69.8409 17.3523 72.2246 19.2104 73.9651C21.0686 75.7056 23.5207 76.6718 26.0667 76.6667H53.9334C56.4794 76.6718 58.9314 75.7056 60.7896 73.9651C62.6478 72.2246 63.7721 69.8409 63.9334 67.3L66.4334 26.8667C66.4607 26.4124 66.3947 25.9573 66.2394 25.5295C66.0842 25.1017 65.843 24.7103 65.5307 24.3792C65.2184 24.0482 64.8416 23.7846 64.4236 23.6048C64.0056 23.4249 63.5551 23.3325 63.1 23.3333H16.9H16.8667ZM36.6667 40C36.6667 39.1159 36.3155 38.2681 35.6904 37.643C35.0653 37.0178 34.2174 36.6667 33.3334 36.6667C32.4493 36.6667 31.6015 37.0178 30.9763 37.643C30.3512 38.2681 30 39.1159 30 40V60C30 60.884 30.3512 61.7319 30.9763 62.357C31.6015 62.9821 32.4493 63.3333 33.3334 63.3333C34.2174 63.3333 35.0653 62.9821 35.6904 62.357C36.3155 61.7319 36.6667 60.884 36.6667 60V40ZM46.6667 36.6667C47.5507 36.6667 48.3986 37.0178 49.0237 37.643C49.6488 38.2681 50 39.1159 50 40V60C50 60.884 49.6488 61.7319 49.0237 62.357C48.3986 62.9821 47.5507 63.3333 46.6667 63.3333C45.7826 63.3333 44.9348 62.9821 44.3097 62.357C43.6845 61.7319 43.3334 60.884 43.3334 60V40C43.3334 39.1159 43.6845 38.2681 44.3097 37.643C44.9348 37.0178 45.7826 36.6667 46.6667 36.6667Z" fill="white"/>
</svg>
