<svg width="100" height="100" viewBox="0 0 32 32" fill="none" xmlns="http://www.w3.org/2000/svg">
<path fill-rule="evenodd" clip-rule="evenodd" d="M28.6684 3.86749C28.0439 3.31205 27.1967 3 26.3134 3H6.33049C5.44719 3 4.60007 3.31205 3.97548 3.86749C3.35089 4.42294 3 5.17629 3 5.96181V26.6944C3 27.48 3.35089 28.2333 3.97548 28.7888C4.60007 29.3442 5.44719 29.6562 6.33049 29.6562H26.3134C27.1967 29.6562 28.0439 29.3442 28.6684 28.7888C29.293 28.2333 29.6439 27.48 29.6439 26.6944V5.96181C29.6439 5.17629 29.293 4.42294 28.6684 3.86749ZM16.3544 6.87744C15.9795 6.87744 15.6196 7.01105 15.3519 7.24958V7.23656L9.62328 12.4439C9.38658 12.6914 9.26137 13.011 9.27268 13.3388C9.28399 13.6666 9.43099 13.9785 9.68429 14.212C9.93759 14.4456 10.2785 14.5836 10.6389 14.5985C10.9994 14.6135 11.3527 14.5042 11.6283 14.2925L14.9223 11.2983V18.5756C14.9223 18.9209 15.0731 19.252 15.3417 19.4961C15.6103 19.7403 15.9746 19.8774 16.3544 19.8774C16.7342 19.8774 17.0985 19.7403 17.3671 19.4961C17.6357 19.252 17.7866 18.9209 17.7866 18.5756V11.3113L21.0805 14.2795C21.3563 14.4675 21.6975 14.5588 22.0413 14.5366C22.3852 14.5144 22.7087 14.3802 22.9525 14.1586C23.1963 13.937 23.3439 13.6429 23.3684 13.3303C23.3928 13.0178 23.2924 12.7076 23.0855 12.4569L17.3569 7.24958C17.0892 7.01105 16.7293 6.87744 16.3544 6.87744ZM9.29137 24.2102C9.28131 23.3853 9.90752 22.7026 10.683 22.6931L21.9621 22.5555C22.3361 22.5509 22.6966 22.7046 22.9644 22.9826C23.2323 23.2607 23.3855 23.6404 23.3903 24.0382C23.3952 24.436 23.2513 24.8193 22.9903 25.1038C22.7293 25.3883 22.3727 25.5507 21.9987 25.5553L10.7196 25.6929C10.3456 25.6975 9.98511 25.5438 9.71727 25.2658C9.44943 24.9877 9.29623 24.608 9.29137 24.2102Z" fill="#ABABAB"/>
</svg>
