<svg width="81" height="80" viewBox="0 0 81 80" fill="none" xmlns="http://www.w3.org/2000/svg">
<path d="M13.8334 26.6667V51.6667C13.8334 52.1087 13.6578 52.5326 13.3453 52.8452C13.0327 53.1577 12.6088 53.3333 12.1667 53.3333H10.5001C9.61603 53.3333 8.76818 52.9821 8.14306 52.357C7.51794 51.7319 7.16675 50.884 7.16675 50V26.6667C7.16675 21.3623 9.27388 16.2752 13.0246 12.5245C16.7753 8.77379 21.8624 6.66666 27.1667 6.66666H50.5001C51.3841 6.66666 52.232 7.01785 52.8571 7.64297C53.4822 8.26809 53.8334 9.11593 53.8334 9.99999V11.6667C53.8334 12.1087 53.6578 12.5326 53.3453 12.8452C53.0327 13.1577 52.6088 13.3333 52.1668 13.3333H27.1667C23.6305 13.3333 20.2391 14.7381 17.7387 17.2386C15.2382 19.7391 13.8334 23.1304 13.8334 26.6667Z" fill="#ABABAB"/>
<path fill-rule="evenodd" clip-rule="evenodd" d="M20.5 30C20.5 27.3478 21.5536 24.8043 23.4289 22.9289C25.3043 21.0536 27.8478 20 30.5 20H63.8333C66.4855 20 69.029 21.0536 70.9044 22.9289C72.7798 24.8043 73.8333 27.3478 73.8333 30V63.3333C73.8333 65.9855 72.7798 68.529 70.9044 70.4044C69.029 72.2798 66.4855 73.3333 63.8333 73.3333H30.5C27.8478 73.3333 25.3043 72.2798 23.4289 70.4044C21.5536 68.529 20.5 65.9855 20.5 63.3333V30ZM66.5 62.6333L56.5667 50C55.9427 49.2093 55.1476 48.5703 54.2412 48.1309C53.3348 47.6916 52.3406 47.4633 51.3333 47.4633C50.3261 47.4633 49.3319 47.6916 48.4255 48.1309C47.5191 48.5703 46.724 49.2093 46.1 50L39.1333 58.8333L38.7 58.3C38.2197 57.7136 37.6123 57.2441 36.9239 56.927C36.2355 56.6099 35.4839 56.4535 34.7261 56.4695C33.9683 56.4856 33.2241 56.6737 32.5497 57.0197C31.8753 57.3657 31.2884 57.8605 30.8333 58.4667L27.6667 62.6667C27.3881 63.0381 27.2185 63.4797 27.1768 63.9422C27.1351 64.4046 27.223 64.8694 27.4306 65.2847C27.6382 65.7 27.9574 66.0492 28.3523 66.2933C28.7473 66.5374 29.2024 66.6667 29.6667 66.6667H64.5333C66.6 66.6667 67.7667 64.2667 66.5 62.6333ZM39.6 27.6667C41.5 25.8 44.6667 27.6333 44.0333 30.2333C43.8678 30.9002 43.9661 31.6052 44.3076 32.2014C44.6492 32.7975 45.2077 33.2389 45.8667 33.4333C48.4333 34.1667 48.4333 37.7667 45.8667 38.5333C45.2077 38.7278 44.6492 39.1691 44.3076 39.7653C43.9661 40.3615 43.8678 41.0665 44.0333 41.7333C44.6667 44.3 41.5 46.1333 39.6 44.2667C39.1047 43.7978 38.4487 43.5365 37.7667 43.5365C37.0847 43.5365 36.4286 43.7978 35.9333 44.2667C34 46.1333 30.8333 44.3 31.5 41.7333C31.6642 41.062 31.5613 40.3532 31.2131 39.7563C30.8648 39.1593 30.2985 38.7209 29.6333 38.5333C27.0667 37.8 27.0667 34.1667 29.6333 33.4333C30.2985 33.2458 30.8648 32.8073 31.2131 32.2104C31.5613 31.6135 31.6642 30.9046 31.5 30.2333C30.8333 27.6333 34 25.8 35.9 27.6667C36.9333 28.6667 38.5667 28.6667 39.6 27.6667Z" fill="#ABABAB"/>
</svg>
