<svg width="100" height="100" viewBox="0 0 81 80" fill="none" xmlns="http://www.w3.org/2000/svg">
<path d="M54.8999 49.0667C54.2791 48.4421 53.9306 47.5973 53.9306 46.7167C53.9306 45.836 54.2791 44.9912 54.8999 44.3667L63.2666 36C65.6109 33.4869 66.8885 30.1622 66.8304 26.7259C66.7723 23.2896 65.3829 20.01 62.9549 17.5777C60.5269 15.1454 57.2498 13.7502 53.8136 13.686C50.3775 13.6217 47.0505 14.8934 44.5332 17.2333L36.1332 25.6C35.4956 26.1461 34.6753 26.4314 33.8364 26.399C32.9975 26.3666 32.2017 26.0188 31.608 25.4252C31.0144 24.8315 30.6666 24.0358 30.6342 23.1968C30.6018 22.3579 30.8871 21.5377 31.4332 20.9L39.8332 12.5C43.5998 8.89794 48.6272 6.91427 53.8385 6.97397C59.0498 7.03366 64.0305 9.13196 67.7135 12.8193C71.3965 16.5067 73.489 21.4899 73.5425 26.7013C73.596 31.9126 71.6064 36.9377 67.9999 40.7L59.5999 49.0667C58.9754 49.6875 58.1305 50.036 57.2499 50.036C56.3693 50.036 55.5244 49.6875 54.8999 49.0667ZM26.0999 30.9667C26.7207 31.5912 27.0692 32.436 27.0692 33.3167C27.0692 34.1973 26.7207 35.0421 26.0999 35.6667L17.6999 44.0333C15.2113 46.5219 13.8132 49.8972 13.8132 53.4167C13.8132 56.9361 15.2113 60.3114 17.6999 62.8C20.1885 65.2886 23.5638 66.6867 27.0832 66.6867C30.6027 66.6867 33.978 65.2886 36.4666 62.8L44.8332 54.4C45.4609 53.7723 46.3122 53.4197 47.1999 53.4197C48.0876 53.4197 48.9389 53.7723 49.5666 54.4C50.1943 55.0277 50.5469 55.879 50.5469 56.7667C50.5469 57.6543 50.1943 58.5056 49.5666 59.1333L41.1666 67.5C37.3826 70.988 32.3963 72.8773 27.2511 72.7726C22.1058 72.6679 17.2005 70.5774 13.5615 66.9384C9.92251 63.2994 7.83194 58.3941 7.72727 53.2488C7.6226 48.1036 9.51194 43.1173 12.9999 39.3333L21.3666 30.9667C21.6764 30.6542 22.0451 30.4062 22.4513 30.237C22.8575 30.0678 23.2932 29.9807 23.7332 29.9807C24.1733 29.9807 24.609 30.0678 25.0152 30.237C25.4214 30.4062 25.79 30.6542 26.0999 30.9667Z" fill="#ABABAB"/>
<path d="M49.5001 35.6667C49.9815 35.0248 50.2152 34.2308 50.1584 33.4304C50.1015 32.63 49.7578 31.8771 49.1904 31.3097C48.6231 30.7423 47.8701 30.3986 47.0697 30.3418C46.2693 30.2849 45.4753 30.5186 44.8334 31L31.5001 44.3334C31.118 44.6199 30.802 44.9852 30.5734 45.4045C30.3448 45.8238 30.209 46.2874 30.1751 46.7637C30.1413 47.2401 30.2102 47.7182 30.3772 48.1656C30.5442 48.6131 30.8054 49.0194 31.1431 49.3571C31.4808 49.6948 31.8871 49.956 32.3345 50.1229C32.7819 50.2899 33.26 50.3588 33.7364 50.325C34.2128 50.2911 34.6763 50.1553 35.0956 49.9267C35.5149 49.6981 35.8802 49.3821 36.1667 49L49.5001 35.6667Z" fill="#ABABAB"/>
</svg>
